<svg width="80" height="80" viewBox="0 0 80 80" fill="none" xmlns="http://www.w3.org/2000/svg">
<path d="M40 80C62.0914 80 80 62.0914 80 40C80 17.9086 62.0914 0 40 0C17.9086 0 0 17.9086 0 40C0 62.0914 17.9086 80 40 80Z" fill="#422FBD" fill-opacity="0.2"/>
<mask id="mask0_contact_location" style="mask-type:alpha" maskUnits="userSpaceOnUse" x="22" y="22" width="36" height="36">
<path d="M58 22H22V58H58V22Z" fill="black"/>
</mask>
<g mask="url(#mask0_contact_location)">
<path d="M48.916 25.723C47.7453 24.5522 46.3554 23.6235 44.8258 22.9898C43.2962 22.3562 41.6567 22.03 40.001 22.03C38.3453 22.03 36.7058 22.3562 35.1762 22.9898C33.6465 23.6235 32.2567 24.5522 31.086 25.723C26.679 30.13 26.131 38.42 29.9 43.442L40 58.03L50.087 43.463C53.871 38.42 53.323 30.13 48.916 25.723ZM40.116 39.123C39.2062 39.123 38.3168 38.8532 37.5604 38.3478C36.8039 37.8423 36.2143 37.1239 35.8661 36.2834C35.518 35.4428 35.4269 34.5179 35.6044 33.6256C35.7819 32.7333 36.22 31.9137 36.8633 31.2703C37.5066 30.627 38.3263 30.1889 39.2186 30.0114C40.1109 29.8339 41.0358 29.925 41.8763 30.2732C42.7169 30.6213 43.4353 31.2109 43.9407 31.9674C44.4462 32.7239 44.716 33.6132 44.716 34.523C44.7141 35.7424 44.2291 36.9113 43.367 37.7737C42.505 38.6361 41.3363 39.1216 40.117 39.124L40.116 39.123Z" fill="#422FBD"/>
</g>
</svg>
