<svg width="80" height="80" viewBox="0 0 80 80" fill="none" xmlns="http://www.w3.org/2000/svg">
<path d="M40 80C62.0914 80 80 62.0914 80 40C80 17.9086 62.0914 0 40 0C17.9086 0 0 17.9086 0 40C0 62.0914 17.9086 80 40 80Z" fill="#422FBD" fill-opacity="0.2"/>
<mask id="mask0_contact_email" style="mask-type:alpha" maskUnits="userSpaceOnUse" x="22" y="22" width="36" height="36">
<path d="M58 22H22V58H58V22Z" fill="black"/>
</mask>
<g mask="url(#mask0_contact_email)">
<path d="M25.2189 34.4989C25.6816 34.8256 27.0766 35.7953 29.4039 37.4079C31.7313 39.0206 33.5143 40.2623 34.7529 41.1329C34.8863 41.2283 35.1753 41.4359 35.6199 41.7559C36.0646 42.0759 36.4313 42.3346 36.7199 42.5319C37.0126 42.7319 37.3666 42.9529 37.7819 43.1949C38.1528 43.4194 38.5463 43.6041 38.9559 43.7459C39.2842 43.8618 39.6289 43.9239 39.9769 43.9299H40.0179C40.366 43.9239 40.7107 43.8618 41.0389 43.7459C41.4486 43.6041 41.8421 43.4194 42.2129 43.1949C42.6283 42.9496 42.9819 42.7286 43.2739 42.5319C43.5659 42.3353 43.9326 42.0766 44.3739 41.7559C44.8159 41.4359 45.1053 41.2283 45.2419 41.1329C46.4939 40.2623 49.6786 38.0506 54.7959 34.4979C55.7728 33.8206 56.6168 32.9694 57.2859 31.9869C57.9274 31.0864 58.2765 30.0105 58.2859 28.9049C58.2917 28.4743 58.2085 28.0472 58.0416 27.6502C57.8747 27.2533 57.6277 26.895 57.3159 26.5979C57.0188 26.2914 56.6626 26.0484 56.2688 25.8835C55.875 25.7187 55.4518 25.6355 55.0249 25.6389H24.9739C24.5156 25.613 24.0576 25.6956 23.6372 25.8802C23.2169 26.0647 22.846 26.3459 22.5549 26.7009C21.9733 27.4602 21.6739 28.3981 21.7079 29.3539C21.7726 30.379 22.1665 31.3557 22.8309 32.1389C23.4902 33.0529 24.2972 33.8505 25.2189 34.4989Z" fill="#422FBD"/>
<path d="M56.2489 36.683C51.7822 39.7043 48.3936 42.052 46.0829 43.726C45.3069 44.2973 44.6776 44.743 44.1949 45.063C43.5837 45.4488 42.9379 45.7768 42.2659 46.043C41.5578 46.356 40.7949 46.5259 40.0209 46.543H39.9799C39.2056 46.526 38.4423 46.356 37.7339 46.043C37.0619 45.7768 36.4161 45.4487 35.8049 45.063C35.3216 44.7437 34.6922 44.298 33.9169 43.726C32.0789 42.3787 28.6966 40.031 23.7699 36.683C23.0105 36.1802 22.3177 35.5835 21.7079 34.907V51.113C21.7013 51.5431 21.7829 51.9701 21.9479 52.3674C22.1128 52.7647 22.3576 53.124 22.6669 53.423C22.9654 53.7321 23.3242 53.9768 23.721 54.1419C24.1177 54.3071 24.5442 54.3891 24.9739 54.383H55.0249C55.891 54.3803 56.7208 54.0349 57.3328 53.4221C57.9448 52.8093 58.2893 51.9791 58.2909 51.113V34.907C57.6841 35.5789 56.9985 36.1753 56.2489 36.683Z" fill="#422FBD"/>
</g>
</svg>
