<svg width="80" height="80" viewBox="0 0 80 80" fill="none" xmlns="http://www.w3.org/2000/svg">
<path d="M40 80C62.0914 80 80 62.0914 80 40C80 17.9086 62.0914 0 40 0C17.9086 0 0 17.9086 0 40C0 62.0914 17.9086 80 40 80Z" fill="#422FBD" fill-opacity="0.2"/>
<path d="M40 14.1819C33.7149 14.1847 27.6358 16.4237 22.8503 20.4983C18.0648 24.5729 14.8852 30.2173 13.8804 36.4216C12.8755 42.6259 14.111 48.9854 17.3657 54.3622C20.6204 59.739 25.6821 63.7824 31.645 65.7689C32.968 66.0169 33.464 65.1899 33.464 64.5289V59.5689C26.111 61.1399 24.545 56.4269 24.545 56.4269C23.305 53.3679 21.569 52.5409 21.569 52.5409C19.169 50.8879 21.734 50.9699 21.734 50.9699C22.5734 51.0832 23.3753 51.3882 24.0778 51.8613C24.7803 52.3343 25.3644 52.9628 25.785 53.6979C28.185 57.7489 31.985 56.5919 33.473 55.9299C33.5888 54.5873 34.1741 53.3286 35.126 52.3749C29.256 51.7139 23.056 49.3989 23.056 39.3129C23.0075 36.6785 23.9859 34.1286 25.784 32.2029C25.0036 29.9115 25.0904 27.4135 26.028 25.1819C26.028 25.1819 28.26 24.4379 33.303 27.9099C35.4584 27.3186 37.6821 27.013 39.917 27.0009C42.1524 27.0073 44.3768 27.313 46.531 27.9099C51.574 24.5159 53.806 25.1819 53.806 25.1819C54.7465 27.4148 54.8347 29.9152 54.054 32.2089C55.8655 34.1263 56.846 36.6818 56.782 39.3189C56.782 49.4879 50.582 51.7189 44.712 52.3809C45.3401 53.0211 45.8266 53.7862 46.14 54.6265C46.4533 55.4669 46.5866 56.3637 46.531 57.2589V64.5339C46.531 65.2779 47.031 66.0219 48.35 65.7739C54.3163 63.7902 59.3818 59.7478 62.6396 54.3702C65.8973 48.9927 67.1347 42.6311 66.1302 36.4245C65.1257 30.2179 61.9448 24.5714 57.1571 20.496C52.3694 16.4206 46.2874 14.1823 40 14.1819Z" fill="#422FBD"/>
</svg>
