<svg width="80" height="80" viewBox="0 0 80 80" fill="none" xmlns="http://www.w3.org/2000/svg">
<path d="M40 80C62.0914 80 80 62.0914 80 40C80 17.9086 62.0914 0 40 0C17.9086 0 0 17.9086 0 40C0 62.0914 17.9086 80 40 80Z" fill="#422FBD" fill-opacity="0.2"/>
<mask id="mask0_contact_linkedin" style="mask-type:alpha" maskUnits="userSpaceOnUse" x="22" y="22" width="36" height="36">
<path d="M58 22H22V58H58V22Z" fill="black"/>
</mask>
<g mask="url(#mask0_contact_linkedin)">
<path d="M58.0001 42.7951V56.1041H50.2841V43.6861C50.2841 40.5661 49.1681 38.4381 46.3751 38.4381C45.5046 38.4432 44.6571 38.7171 43.9484 39.2225C43.2397 39.7278 42.7045 40.4399 42.4161 41.2611C42.2178 41.8675 42.131 42.5048 42.1601 43.1421V56.1041H34.4421C34.4421 56.1041 34.5421 35.0721 34.4421 32.8931H42.1601V36.1831C42.1441 36.2081 42.1241 36.2341 42.1091 36.2581H42.1601V36.1831C42.8583 34.9695 43.8758 33.9704 45.1019 33.2943C46.3281 32.6182 47.716 32.2909 49.1151 32.3481C54.1931 32.3481 58.0001 35.6651 58.0001 42.7951ZM26.3681 21.7041C25.8172 21.657 25.2625 21.7239 24.7387 21.9007C24.2149 22.0775 23.7331 22.3605 23.3236 22.7318C22.914 23.1032 22.5853 23.555 22.3582 24.059C22.131 24.5631 22.0103 25.1085 22.0034 25.6613C21.9965 26.2142 22.1036 26.7625 22.3181 27.272C22.5327 27.7816 22.8499 28.2414 23.2501 28.6229C23.6503 29.0043 24.1249 29.2992 24.6441 29.489C25.1634 29.6788 25.7162 29.7595 26.2681 29.7261H26.3201C26.8736 29.7739 27.431 29.7066 27.9573 29.5284C28.4835 29.3501 28.9671 29.0648 29.3777 28.6905C29.7882 28.3161 30.1168 27.8608 30.3427 27.3532C30.5686 26.8456 30.687 26.2967 30.6903 25.7411C30.6936 25.1855 30.5818 24.6353 30.362 24.125C30.1422 23.6147 29.8191 23.1555 29.4131 22.7763C29.007 22.397 28.5269 22.106 28.0028 21.9215C27.4787 21.7369 26.9221 21.6629 26.3681 21.7041ZM22.4581 56.1041H30.1741V32.8931H22.4581V56.1041Z" fill="#422FBD"/>
</g>
</svg>
