<svg width="80" height="80" viewBox="0 0 80 80" fill="none" xmlns="http://www.w3.org/2000/svg">
<path d="M40 80C62.0914 80 80 62.0914 80 40C80 17.9086 62.0914 0 40 0C17.9086 0 0 17.9086 0 40C0 62.0914 17.9086 80 40 80Z" fill="#422FBD" fill-opacity="0.2"/>
<mask id="mask0_contact_phone" style="mask-type:alpha" maskUnits="userSpaceOnUse" x="22" y="22" width="36" height="36">
<path d="M58 22H22V58H58V22Z" fill="black"/>
</mask>
<g mask="url(#mask0_contact_phone)">
<path d="M49.37 45.796C49.1332 45.5226 48.8404 45.3034 48.5115 45.1531C48.1825 45.0028 47.8251 44.925 47.4635 44.925C47.1018 44.925 46.7444 45.0028 46.4154 45.1531C46.0865 45.3034 45.7937 45.5226 45.557 45.796C44.666 46.68 43.774 47.564 42.898 48.463C42.8589 48.5204 42.8088 48.5694 42.7506 48.6073C42.6925 48.6451 42.6274 48.6711 42.5591 48.6837C42.4909 48.6962 42.4208 48.6951 42.353 48.6804C42.2851 48.6657 42.2209 48.6377 42.164 48.598C41.587 48.283 40.973 48.029 40.419 47.684C37.8797 46.0396 35.6274 43.9897 33.752 41.616C32.7762 40.461 31.9714 39.1718 31.362 37.788C31.2973 37.6744 31.2753 37.5414 31.3001 37.4131C31.3248 37.2847 31.3947 37.1694 31.497 37.088C32.388 36.227 33.257 35.343 34.134 34.459C34.4204 34.2209 34.6508 33.9226 34.8086 33.5852C34.9665 33.2479 35.048 32.8799 35.0474 32.5074C35.0467 32.1349 34.9639 31.7672 34.8048 31.4304C34.6457 31.0936 34.4142 30.7961 34.127 30.559C33.427 29.859 32.734 29.166 32.037 28.459C31.316 27.734 30.6 27.008 29.877 26.296C29.6382 26.0256 29.3445 25.8091 29.0155 25.661C28.6865 25.5129 28.3297 25.4367 27.9689 25.4374C27.6081 25.438 27.2516 25.5156 26.9231 25.6648C26.5946 25.8141 26.3017 26.0317 26.064 26.303C25.164 27.187 24.304 28.093 23.39 28.962C22.5755 29.7269 22.0873 30.7764 22.027 31.892C21.9487 33.7213 22.2762 35.5452 22.986 37.233C24.3357 40.7426 26.285 43.9909 28.747 46.833C31.9832 50.714 36.0074 53.8626 40.553 56.07C42.5833 57.1361 44.8075 57.7823 47.093 57.97C47.8529 58.0554 48.6222 57.9577 49.3367 57.6851C50.0512 57.4125 50.69 56.9729 51.2 56.403C51.964 55.549 52.826 54.77 53.635 53.953C53.9167 53.7148 54.1433 53.4183 54.2992 53.084C54.4551 52.7496 54.5366 52.3854 54.5381 52.0165C54.5395 51.6476 54.4608 51.2828 54.3075 50.9472C54.1542 50.6117 53.9298 50.3134 53.65 50.073C52.23 48.6424 50.8033 47.2167 49.37 45.796Z" fill="#422FBD"/>
<path d="M47.939 39.825L50.703 39.353C50.2568 36.7626 48.9996 34.3808 47.1125 32.551C45.2254 30.7212 42.8059 29.538 40.203 29.172L39.813 31.951C41.8264 32.2329 43.6982 33.1474 45.1579 34.5626C46.6176 35.9777 47.5898 37.8202 47.934 39.824L47.939 39.825Z" fill="#422FBD"/>
<path d="M52.2609 27.809C49.1101 24.6373 45.004 22.5895 40.5749 21.981L40.1849 24.76C43.9147 25.2842 47.3817 26.979 50.0864 29.6002C52.7912 32.2213 54.5939 35.6335 55.2349 39.345L57.9999 38.874C57.2798 34.68 55.2743 30.8135 52.2609 27.809Z" fill="#422FBD"/>
</g>
</svg>
