<svg width="157" height="137" viewBox="0 0 157 137" fill="none" xmlns="http://www.w3.org/2000/svg">
<path d="M78.325 -3.05176e-05C104.496 -3.05176e-05 107.106 23.453 121.438 43.323C130.616 56.046 156.65 61.237 156.65 78.323C156.65 121.58 134.573 136.123 91.315 136.123C60.3 136.123 41.257 138.935 28.471 112.583C23.561 102.471 0 90.567 0 78.325C0 57.5519 8.25207 37.6296 22.9409 22.9408C37.6296 8.25204 57.5519 -3.05176e-05 78.325 -3.05176e-05Z" fill="#422FBD" fill-opacity="0.2"/>
<path d="M123.919 74.2789L99.8011 50.1599C99.4192 49.7987 98.9134 49.5973 98.3876 49.5973C97.8619 49.5973 97.3561 49.7987 96.9741 50.1599L91.7451 55.3889C91.3702 55.764 91.1595 56.2726 91.1595 56.8029C91.1595 57.3333 91.3702 57.8419 91.7451 58.2169L109.221 75.6919L91.7451 93.1699C91.3702 93.545 91.1595 94.0536 91.1595 94.5839C91.1595 95.1143 91.3702 95.6229 91.7451 95.9979L96.9741 101.227C97.3492 101.602 97.8578 101.812 98.3881 101.812C98.9184 101.812 99.4271 101.602 99.8021 101.227L123.919 77.1089C124.105 76.9232 124.253 76.7026 124.353 76.4598C124.454 76.217 124.506 75.9568 124.506 75.6939C124.506 75.4311 124.454 75.1708 124.353 74.9281C124.253 74.6853 124.105 74.4647 123.919 74.2789Z" fill="#422FBD"/>
<path d="M62.7601 93.17L45.2861 75.694L62.7631 58.219C63.138 57.8439 63.3486 57.3353 63.3486 56.805C63.3486 56.2746 63.138 55.766 62.7631 55.391L57.5341 50.1619C57.159 49.787 56.6504 49.5764 56.1201 49.5764C55.5897 49.5764 55.0811 49.787 54.7061 50.1619L30.5861 74.279C30.4003 74.4647 30.2529 74.6852 30.1523 74.9279C30.0518 75.1706 30 75.4307 30 75.6935C30 75.9562 30.0518 76.2163 30.1523 76.459C30.2529 76.7017 30.4003 76.9222 30.5861 77.108L54.7011 101.226C55.0761 101.601 55.5847 101.812 56.1151 101.812C56.6454 101.812 57.154 101.601 57.5291 101.226L62.7581 95.997C63.133 95.6222 63.3438 95.114 63.3441 94.5839C63.3445 94.0538 63.1344 93.5452 62.7601 93.17Z" fill="#422FBD"/>
<path d="M90.9681 42.0456C90.7146 41.5798 90.2866 41.2338 89.7781 41.0836L85.5391 39.8326C85.0304 39.6825 84.483 39.7407 84.0171 39.9942C83.5513 40.2477 83.2053 40.6759 83.0551 41.1846L63.3761 107.828C63.226 108.336 63.284 108.883 63.5374 109.349C63.7907 109.815 64.2186 110.161 64.7271 110.312L68.9661 111.563C69.218 111.638 69.4822 111.662 69.7435 111.635C70.0049 111.607 70.2582 111.528 70.4891 111.403C70.7199 111.277 70.9236 111.107 71.0885 110.903C71.2535 110.698 71.3763 110.463 71.4501 110.211L91.1291 43.5666C91.2791 43.0583 91.2212 42.5112 90.9681 42.0456Z" fill="#422FBD"/>
</svg>
