<svg width="157" height="137" viewBox="0 0 157 137" fill="none" xmlns="http://www.w3.org/2000/svg">
<path d="M78.325 -3.05176e-05C104.496 -3.05176e-05 107.106 23.453 121.438 43.323C130.616 56.046 156.65 61.237 156.65 78.323C156.65 121.58 134.573 136.123 91.315 136.123C60.3 136.123 41.257 138.935 28.471 112.583C23.561 102.471 0 90.567 0 78.325C0 57.5519 8.25207 37.6296 22.9409 22.9408C37.6296 8.25204 57.5519 -3.05176e-05 78.325 -3.05176e-05Z" fill="#422FBD" fill-opacity="0.2"/>
<path d="M77.912 36.333C75.6864 36.3206 73.5071 36.9684 71.6496 38.1946C69.7922 39.4208 68.3401 41.1702 67.4769 43.2217C66.6138 45.2732 66.3783 47.5345 66.8004 49.7198C67.2224 51.9051 68.283 53.9161 69.848 55.4986C71.4131 57.0811 73.4122 58.164 75.5927 58.6103C77.7731 59.0566 80.037 58.8463 82.0979 58.006C84.1588 57.1657 85.9243 55.7331 87.171 53.8894C88.4177 52.0457 89.0897 49.8737 89.102 47.648C89.1038 44.6682 87.9293 41.808 85.834 39.6893C83.7386 37.5705 80.8917 36.3644 77.912 36.333Z" fill="#422FBD"/>
<path d="M81.6421 58.838H74.1821C71.5784 58.8594 69.0157 59.4885 66.6981 60.675C70.6219 61.7306 74.3917 63.2928 77.9121 65.322C81.4325 63.2928 85.2022 61.7306 89.1261 60.675C86.8084 59.4885 84.2457 58.8594 81.6421 58.838Z" fill="#422FBD"/>
<path d="M106.012 70.028C105.522 70.028 105.037 70.1245 104.585 70.3119C104.132 70.4994 103.721 70.7741 103.375 71.1205C103.028 71.4668 102.753 71.878 102.566 72.3306C102.379 72.7831 102.282 73.2682 102.282 73.758V81.218C102.282 82.2072 102.675 83.156 103.375 83.8555C104.074 84.555 105.023 84.948 106.012 84.948C107.001 84.948 107.95 84.555 108.65 83.8555C109.349 83.156 109.742 82.2072 109.742 81.218V73.758C109.742 72.7687 109.349 71.82 108.65 71.1205C107.95 70.421 107.001 70.028 106.012 70.028Z" fill="#422FBD"/>
<path d="M49.812 70.028C48.8228 70.028 47.874 70.421 47.1745 71.1205C46.475 71.82 46.082 72.7687 46.082 73.758V81.218C46.082 82.2072 46.475 83.156 47.1745 83.8555C47.874 84.555 48.8228 84.948 49.812 84.948C50.8013 84.948 51.75 84.555 52.4495 83.8555C53.1491 83.156 53.542 82.2072 53.542 81.218V73.758C53.542 72.7687 53.1491 71.82 52.4495 71.1205C51.75 70.421 50.8013 70.028 49.812 70.028Z" fill="#422FBD"/>
<path d="M51.677 62.5679C51.4321 62.5678 51.1895 62.616 50.9632 62.7096C50.7368 62.8033 50.5312 62.9407 50.358 63.1139C50.1848 63.2871 50.0474 63.4928 49.9537 63.7191C49.86 63.9454 49.8119 64.188 49.812 64.433V66.2979C51.7899 66.3001 53.6861 67.0867 55.0847 68.4853C56.4833 69.8838 57.2699 71.7801 57.272 73.7579V81.2179C57.2699 83.1958 56.4833 85.0921 55.0847 86.4906C53.6861 87.8892 51.7899 88.6758 49.812 88.6779V90.543C49.8119 90.7879 49.86 91.0305 49.9537 91.2568C50.0474 91.4831 50.1848 91.6888 50.358 91.862C50.5312 92.0352 50.7368 92.1726 50.9632 92.2663C51.1895 92.3599 51.4321 92.4081 51.677 92.4079C61.239 92.4079 68.884 95.4279 76.047 99.9919V68.61C68.852 64.485 61.112 62.5679 51.677 62.5679Z" fill="#422FBD"/>
<path d="M106.012 66.2982V64.4332C106.012 64.1882 105.964 63.9456 105.87 63.7193C105.777 63.493 105.639 63.2873 105.466 63.1141C105.293 62.9409 105.087 62.8035 104.861 62.7099C104.635 62.6162 104.392 62.568 104.147 62.5682C94.71 62.5682 86.973 64.4852 79.777 68.6102V99.9932C86.94 95.4282 94.585 92.4092 104.147 92.4092C104.392 92.4093 104.635 92.3611 104.861 92.2675C105.087 92.1738 105.293 92.0364 105.466 91.8632C105.639 91.69 105.777 91.4844 105.87 91.258C105.964 91.0317 106.012 90.7891 106.012 90.5442V88.6792C104.034 88.677 102.138 87.8904 100.739 86.4918C99.3408 85.0933 98.5541 83.197 98.552 81.2192V73.7592C98.5539 71.7811 99.3404 69.8846 100.739 68.4858C102.138 67.0871 104.034 66.3003 106.012 66.2982Z" fill="#422FBD"/>
</svg>
