<svg width="157" height="137" viewBox="0 0 157 137" fill="none" xmlns="http://www.w3.org/2000/svg">
<path d="M78.325 -3.05176e-05C104.496 -3.05176e-05 107.106 23.453 121.438 43.323C130.616 56.046 156.65 61.237 156.65 78.323C156.65 121.58 134.573 136.123 91.315 136.123C60.3 136.123 41.257 138.935 28.471 112.583C23.561 102.471 0 90.567 0 78.325C0 57.5519 8.25207 37.6296 22.9409 22.9408C37.6296 8.25204 57.5519 -3.05176e-05 78.325 -3.05176e-05Z" fill="#422FBD" fill-opacity="0.2"/>
<path d="M112.188 50.6199C101.358 32.8349 85.0582 45.2079 85.0582 45.2079C83.7754 46.0834 82.2762 46.5886 80.7252 46.6679H76.3572C74.8068 46.5924 73.3077 46.0888 72.0262 45.2129C72.0262 45.2129 55.7152 32.8389 44.8882 50.6239C34.0612 68.4089 38.4262 87.7669 38.4262 87.7669C39.1902 92.5079 41.7092 95.6669 46.4622 95.2739C51.2152 94.8809 61.4892 82.5049 61.4892 82.5049C62.5191 81.402 63.9346 80.7387 65.4412 80.6529H91.6272C93.1337 80.7379 94.5491 81.4014 95.5782 82.5049C95.5782 82.5049 105.867 94.8729 110.614 95.2669C115.361 95.6609 117.886 92.4979 118.645 87.7599C118.645 87.7599 123.013 68.4019 112.188 50.6199ZM68.6962 65.0959H63.0812V70.5079C62.1866 71.1075 61.1288 71.4166 60.0522 71.3929C59.5639 71.4145 59.0762 71.338 58.618 71.1679C58.1597 70.9979 57.7402 70.7378 57.3842 70.4029V65.1029H52.0842C51.5543 64.3888 51.261 63.527 51.2452 62.6379C51.1612 61.512 51.4162 60.3867 51.9772 59.4069H57.5942V53.7869C58.4742 53.3746 59.44 53.1785 60.4112 53.2149C61.4072 53.245 62.387 53.4753 63.2922 53.8919L63.2692 59.3999H68.5692C69.1336 60.1689 69.4792 61.0763 69.5692 62.0259C69.5324 63.1051 69.2328 64.1589 68.6962 65.0959ZM94.4522 71.2669C93.5733 71.2665 92.7143 71.0056 91.9838 70.517C91.2532 70.0285 90.6839 69.3343 90.3479 68.5222C90.0118 67.7101 89.9241 66.8166 90.0958 65.9547C90.2675 65.0928 90.6909 64.3011 91.3125 63.6798C91.9341 63.0585 92.7259 62.6355 93.5879 62.4642C94.4499 62.2929 95.3434 62.381 96.1553 62.7174C96.9672 63.0538 97.6611 63.6234 98.1494 64.3542C98.6376 65.085 98.8982 65.9441 98.8982 66.8229C98.899 67.4069 98.7845 67.9853 98.5613 68.525C98.3381 69.0646 98.0106 69.5549 97.5976 69.9678C97.1846 70.3806 96.6941 70.7079 96.1544 70.9308C95.6146 71.1538 95.0362 71.268 94.4522 71.2669ZM94.4522 59.0389C93.5733 59.0385 92.7142 58.7775 91.9837 58.2889C91.2531 57.8003 90.6838 57.1061 90.3478 56.294C90.0118 55.4818 89.9241 54.5883 90.0959 53.7264C90.2677 52.8644 90.6912 52.0728 91.3129 51.4515C91.9345 50.8302 92.7265 50.4073 93.5885 50.2361C94.4506 50.0649 95.3441 50.1531 96.156 50.4897C96.9679 50.8263 97.6617 51.396 98.1498 52.1269C98.638 52.8578 98.8984 53.717 98.8982 54.5959C98.8986 55.1796 98.7838 55.7576 98.5604 56.2969C98.3371 56.8362 98.0095 57.326 97.5965 57.7385C97.1835 58.1509 96.6932 58.4778 96.1536 58.7005C95.614 58.9231 95.0359 59.0371 94.4522 59.0359V59.0389ZM105.52 65.6029C104.641 65.6025 103.782 65.3416 103.052 64.853C102.321 64.3645 101.752 63.6703 101.416 62.8582C101.08 62.0461 100.992 61.1526 101.164 60.2907C101.336 59.4288 101.759 58.6371 102.381 58.0158C103.002 57.3945 103.794 56.9715 104.656 56.8002C105.518 56.6289 106.411 56.717 107.223 57.0534C108.035 57.3898 108.729 57.9594 109.217 58.6902C109.706 59.421 109.966 60.2801 109.966 61.1589C109.967 61.7428 109.852 62.321 109.629 62.8605C109.406 63.4 109.078 63.8901 108.665 64.3028C108.252 64.7154 107.762 65.0425 107.222 65.2653C106.682 65.4881 106.104 65.6021 105.52 65.6009V65.6029Z" fill="#422FBD"/>
</svg>
